<?xml version="1.0" standalone="no"?>
<!DOCTYPE svg PUBLIC "-//W3C//DTD SVG 20010904//EN"
 "http://www.w3.org/TR/2001/REC-SVG-20010904/DTD/svg10.dtd">
<svg version="1.0" xmlns="http://www.w3.org/2000/svg"
 width="700.000000pt" height="700.000000pt" viewBox="0 0 700.000000 700.000000"
 preserveAspectRatio="xMidYMid meet">
<metadata>
Created by potrace 1.14, written by Peter Selinger 2001-2017
</metadata>
<g transform="translate(0.000000,700.000000) scale(0.100000,-0.100000)"
fill="#000000" stroke="none">
<path d="M738 6338 c-151 -19 -289 -152 -315 -303 -5 -27 -8 -790 -7 -1695 1
-1538 2 -1648 18 -1695 10 -27 24 -60 32 -73 14 -21 12 -25 -21 -61 -70 -75
-59 -45 -280 -831 -64 -228 -128 -451 -141 -494 -35 -118 -30 -229 15 -313 66
-123 161 -196 278 -211 32 -4 1478 -7 3213 -7 l3155 1 67 23 c107 36 205 138
236 247 21 71 12 181 -22 289 -1 6 -6 24 -10 40 -5 17 -19 66 -31 110 -13 44
-54 186 -90 315 -36 129 -72 258 -80 285 -8 28 -40 137 -70 244 -62 214 -76
248 -128 304 l-36 37 24 48 c14 26 28 72 33 102 4 30 7 791 6 1690 -1 1719 1
1673 -44 1760 -25 48 -101 125 -147 148 -91 47 27 45 -2863 46 -1505 1 -2761
-2 -2792 -6z"/>
</g>
</svg>
