<?xml version="1.0" standalone="no"?>
<!DOCTYPE svg PUBLIC "-//W3C//DTD SVG 20010904//EN"
 "http://www.w3.org/TR/2001/REC-SVG-20010904/DTD/svg10.dtd">
<svg version="1.0" xmlns="http://www.w3.org/2000/svg"
 width="1000.000000pt" height="1000.000000pt" viewBox="0 0 1000.000000 1000.000000"
 preserveAspectRatio="xMidYMid meet">
<metadata>
Created by potrace 1.14, written by Peter Selinger 2001-2017
</metadata>
<g transform="translate(0.000000,1000.000000) scale(0.100000,-0.100000)"
fill="#000000" stroke="none">
<path d="M4967 7944 c-1 -1 -63 -5 -137 -8 -74 -4 -148 -9 -165 -11 -16 -2
-55 -6 -85 -9 -30 -3 -64 -8 -75 -10 -11 -2 -42 -7 -68 -10 -27 -4 -57 -9 -67
-11 -9 -2 -33 -6 -51 -9 -223 -37 -530 -125 -779 -223 -100 -39 -447 -204
-490 -233 -8 -5 -49 -29 -91 -54 -96 -55 -276 -174 -309 -203 -14 -13 -30 -23
-37 -23 -6 0 -13 -3 -15 -8 -1 -4 -34 -32 -73 -62 -38 -30 -77 -62 -86 -72 -9
-10 -19 -18 -23 -18 -4 0 -17 -10 -30 -22 -13 -13 -57 -53 -99 -91 -254 -229
-500 -521 -683 -813 -38 -60 -75 -119 -81 -130 -45 -70 -167 -314 -224 -447
-102 -241 -211 -588 -243 -782 -2 -11 -8 -47 -14 -80 -6 -33 -14 -80 -17 -105
-4 -25 -8 -59 -11 -76 -11 -74 -25 -229 -27 -311 -2 -68 -3 -68 -73 -43 -11 5
-55 8 -97 8 -144 0 -278 -57 -379 -160 -83 -86 -121 -201 -98 -304 13 -59 54
-146 81 -170 27 -24 24 -31 -19 -53 -136 -69 -212 -241 -174 -390 38 -149 184
-262 352 -273 l35 -2 0 -75 c0 -65 4 -83 29 -129 16 -29 47 -68 69 -88 47 -40
145 -89 202 -100 53 -10 238 -11 295 -1 74 12 180 39 199 51 6 4 11 1 11 -6 0
-34 53 -120 108 -175 100 -98 227 -150 345 -140 85 8 98 11 170 48 64 34 220
181 232 219 9 28 21 25 34 -9 15 -35 71 -95 134 -143 48 -37 169 -93 220 -102
15 -2 31 -7 36 -10 5 -3 48 -8 96 -11 213 -12 364 75 426 247 13 34 23 66 21
70 -3 10 32 10 42 1 26 -26 240 -39 316 -20 14 4 39 10 55 13 44 10 119 48
165 84 37 29 107 118 102 130 -1 3 3 23 9 45 14 51 6 183 -14 238 -16 42 -15
47 11 61 114 59 217 240 221 391 5 156 -89 262 -276 309 -33 9 -73 17 -87 18
-31 3 -30 0 -8 40 16 29 32 79 45 144 2 12 0 47 -5 79 -12 77 -64 156 -135
202 -29 20 -53 36 -53 37 0 3 61 161 69 181 90 209 232 485 252 493 5 2 9 9 9
16 0 7 20 40 45 74 25 34 45 65 45 69 0 7 187 192 235 233 37 31 125 90 134
90 5 0 11 3 13 8 8 18 222 117 275 127 13 2 27 6 32 9 14 9 143 35 212 42 90
10 205 11 264 2 28 -4 64 -9 80 -12 181 -26 369 -90 528 -179 94 -53 240 -180
325 -285 44 -54 155 -224 158 -241 0 -3 15 -37 32 -74 18 -38 32 -73 32 -78 0
-5 18 -48 40 -95 22 -47 40 -90 40 -95 0 -5 4 -17 9 -27 23 -45 71 -190 71
-215 0 -11 -8 -13 -32 -8 -39 7 -45 7 -121 -3 -32 -4 -74 -14 -93 -22 -18 -8
-37 -14 -41 -15 -5 0 -32 -14 -62 -31 -126 -72 -214 -204 -214 -321 0 -85 16
-135 67 -212 25 -36 40 -65 35 -65 -15 0 -91 -52 -118 -80 -131 -138 -134
-341 -8 -474 52 -54 95 -81 172 -107 37 -12 54 -15 111 -18 19 -1 21 -7 20
-73 0 -89 25 -148 90 -212 42 -40 114 -84 152 -91 9 -2 17 -4 17 -5 0 -1 27
-7 60 -14 58 -13 224 -14 275 -2 14 3 49 11 79 17 30 6 72 17 93 25 25 8 38 9
38 3 0 -6 12 -34 26 -63 28 -57 100 -136 154 -169 19 -11 37 -24 40 -27 3 -3
32 -17 65 -30 48 -20 78 -25 152 -25 61 0 96 4 104 12 7 7 23 13 35 13 13 0
29 6 36 12 7 7 29 22 48 32 60 34 113 85 175 168 l43 57 18 -40 c26 -59 121
-142 217 -189 321 -157 635 -61 707 217 l10 42 34 -14 c55 -23 86 -28 186 -28
128 -1 178 10 285 59 80 38 163 138 180 219 15 69 7 170 -19 245 -14 40 -13
42 9 50 12 5 47 33 77 63 118 119 176 300 139 433 -29 107 -154 195 -311 221
-25 4 -48 6 -52 5 -11 -3 -10 32 0 44 23 26 46 114 45 179 0 56 -5 81 -26 121
-43 85 -146 162 -240 179 -43 8 -48 14 -53 63 -3 39 -12 101 -18 142 -3 14
-10 59 -16 100 -7 41 -14 84 -17 95 -2 11 -6 29 -7 40 -2 11 -9 43 -16 70 -6
28 -13 57 -15 65 -21 97 -112 396 -145 475 -23 54 -29 69 -56 135 -40 100
-146 315 -203 413 -28 49 -51 93 -51 98 0 5 -4 9 -10 9 -5 0 -10 4 -10 9 0 11
-150 241 -184 282 -12 14 -32 40 -46 59 -14 18 -33 42 -42 53 -10 11 -18 23
-18 26 0 3 -12 20 -28 36 -15 17 -56 64 -92 105 -59 69 -287 300 -356 360
-116 102 -359 291 -411 318 -12 7 -28 18 -35 24 -17 16 -42 31 -308 188 -74
43 -339 168 -440 207 -36 14 -74 28 -85 33 -11 4 -36 13 -55 20 -19 7 -44 16
-55 20 -19 8 -89 31 -110 36 -5 2 -65 19 -132 38 -112 32 -152 41 -210 51 -12
2 -26 6 -31 9 -4 3 -31 8 -58 12 -27 3 -58 8 -69 11 -41 10 -122 23 -175 29
-30 3 -66 8 -80 9 -140 18 -267 26 -443 29 -76 1 -139 1 -140 0z"/>
</g>
</svg>
